<svg width="149" height="179" viewBox="0 0 149 179" fill="none" xmlns="http://www.w3.org/2000/svg">
<path d="M133.984 33.5765C140.146 33.5765 145.142 28.5656 145.142 22.3843C145.142 16.203 140.146 11.1921 133.984 11.1921C127.822 11.1921 122.826 16.203 122.826 22.3843C122.826 28.5656 127.822 33.5765 133.984 33.5765Z" fill="#F8F8F8"/>
<path d="M116.206 41.4856C96.3455 23.6528 122.827 22.3843 122.827 22.3843L124.835 16.1913C110.605 8.10312 94.5528 3.81279 78.1955 3.73071C51.2682 3.73071 29.399 32.9049 26.126 41.0379L116.206 41.4856Z" fill="#D51C29"/>
<path opacity="0.2" d="M46.7307 41.3364C49.4085 33.8749 67.4097 9.40141 90.6178 4.62609C86.5043 4.04409 82.3537 3.74564 78.1955 3.73071C51.2682 3.73071 29.399 32.9049 26.126 41.0379H115.909L46.7307 41.3364Z" fill="white"/>
<path d="M29.3991 41.0379H112.115C118.639 40.9036 124.493 45.0447 126.546 51.2601L127.364 53.6477C128.681 57.5501 126.591 61.7882 122.7 63.1014C121.927 63.3625 121.116 63.4968 120.298 63.4968H21.5887C17.4826 63.5043 14.1427 60.1765 14.1279 56.0578C14.1279 55.237 14.2543 54.4237 14.5221 53.6477L14.9684 51.2601C17.0214 45.0447 22.8755 40.9036 29.3991 41.0379Z" fill="#F8F8F8"/>
<path d="M137.704 89.5373C137.704 74.6144 119.107 63.4222 119.107 63.4222H115.388C119.613 71.5254 122.15 80.4119 122.827 89.5373C123.556 99.1103 116.407 107.46 106.856 108.191C105.978 108.258 105.101 108.258 104.23 108.191C93.5189 108.191 87.4937 100.729 70.7571 100.729C54.0204 100.729 47.9952 108.191 37.2838 108.191C27.7402 108.922 19.4165 101.752 18.6875 92.1712C18.6206 91.2907 18.6206 90.4103 18.6875 89.5373C19.3645 80.4119 21.901 71.5254 26.126 63.4222H22.4068C22.4068 63.4222 3.81055 74.6144 3.81055 89.5373C3.81055 104.46 11.249 108.191 11.249 108.191C11.249 108.191 3.81055 123.114 11.249 130.575C15.1245 134.813 20.4207 137.47 26.126 138.037C26.126 138.037 41.003 181.91 70.7571 167.882C70.7571 173.628 63.3186 175.344 63.3186 175.344C96.9406 175.344 115.388 138.037 115.388 138.037C121.093 137.47 126.39 134.813 130.265 130.575C137.704 123.114 130.265 108.191 130.265 108.191C130.265 108.191 137.704 104.46 137.704 89.5373Z" fill="#F8F8F8"/>
<path d="M115.388 63.4222C119.613 71.5254 122.15 80.4119 122.827 89.5373C123.556 99.1103 116.407 107.46 106.856 108.191C105.979 108.258 105.101 108.258 104.231 108.191C93.5191 108.191 87.4939 100.729 70.7573 100.729C54.0207 100.729 47.9955 108.191 37.284 108.191C27.7404 108.922 19.4168 101.752 18.6878 92.1712C18.6208 91.2907 18.6208 90.4103 18.6878 89.5373C19.3647 80.4119 21.9012 71.5254 26.1263 63.4222H115.388Z" fill="#FBBE9D"/>
<path opacity="0.1" d="M122.827 22.3843L124.017 18.6536C109.66 18.6536 93.0725 19.6982 93.0725 37.3072C93.1023 38.7621 93.4593 40.1873 94.1139 41.4856H116.429C96.3454 23.6527 122.827 22.3843 122.827 22.3843Z" fill="black"/>
<path opacity="0.2" d="M33.5648 89.5373C34.2417 80.4119 36.7782 71.5254 41.0033 63.4222H26.1263C21.9012 71.5254 19.3647 80.4119 18.6878 89.5373C17.9588 99.1103 25.1072 107.46 34.6583 108.191C35.536 108.258 36.4138 108.258 37.2841 108.191C39.8057 108.168 42.3125 107.766 44.7226 106.997C37.5072 104.363 32.9325 97.2151 33.5648 89.5373Z" fill="white"/>
<path opacity="0.1" d="M107.949 89.5373C107.273 80.4119 104.736 71.5254 100.511 63.4222H115.388C119.613 71.5254 122.15 80.4119 122.826 89.5373C123.555 99.1103 116.407 107.46 106.856 108.191C105.978 108.258 105.101 108.258 104.23 108.191C101.709 108.168 99.2018 107.766 96.7917 106.997C104.007 104.363 108.582 97.2151 107.949 89.5373Z" fill="black"/>
<path d="M119.777 26.4881C121.964 34.4345 130.154 39.0979 138.076 36.9043C145.998 34.7106 150.647 26.4956 148.46 18.5491C146.273 10.6027 138.083 5.9393 130.161 8.13297C127.87 8.76719 125.757 9.9461 124.017 11.5652C109.876 4.10379 94.1661 0.141767 78.1956 0C51.0451 0 29.0272 27.0104 23.7458 38.2026C18.0926 40.0157 13.6444 44.4254 11.7699 50.0662L10.9516 52.2301C9.80609 55.6399 10.3863 59.4005 12.5137 62.303C13.0716 63.079 13.7187 63.7804 14.4477 64.3922C6.25049 70.2867 1.00634 79.4643 0.0914084 89.5373C-0.51111 96.7823 1.88409 103.96 6.71167 109.385C4.70328 114.682 1.57911 126.173 8.64568 133.187C12.6773 137.35 17.8545 140.215 23.5227 141.394C26.0518 147.736 34.3085 165.868 48.9623 172.135C52.3766 173.65 56.0884 174.389 59.8226 174.299C59.7333 174.769 59.7333 175.247 59.8226 175.717C60.0531 177.597 61.6524 179.015 63.5418 179C95.0067 179 113.603 149.154 117.992 141.693C123.675 140.506 128.859 137.619 132.869 133.41C139.861 126.397 136.737 114.906 134.803 109.609C139.69 104.132 142.092 96.8569 141.423 89.5373C140.441 79.5464 135.212 70.4584 127.067 64.616C127.796 64.0042 128.443 63.3028 129.001 62.5268C131.202 59.5721 131.79 55.7071 130.563 52.2301L129.744 49.8424C127.885 44.4926 123.697 40.2918 118.364 38.4264C113.454 33.9495 112.19 30.965 112.562 29.7711C112.933 28.5773 116.355 27.1596 119.777 26.4881ZM133.984 14.9229C138.09 14.9229 141.423 18.2656 141.423 22.3843C141.423 26.503 138.09 29.8458 133.984 29.8458C129.878 29.8458 126.546 26.503 126.546 22.3843C126.546 18.2656 129.878 14.9229 133.984 14.9229ZM113.082 67.1529C116.549 74.1368 118.602 81.7475 119.107 89.5373C119.799 97.0882 114.25 103.766 106.722 104.46C105.889 104.535 105.056 104.535 104.23 104.46C100.243 104.266 96.3233 103.304 92.7007 101.625C78.7089 95.5064 62.8054 95.5064 48.8136 101.625C45.191 103.304 41.2709 104.266 37.2839 104.46C29.7561 105.154 23.0987 99.5878 22.4069 92.0368C22.3325 91.2012 22.3325 90.3655 22.4069 89.5373C22.9202 81.7475 24.9732 74.1443 28.4321 67.1529H113.082ZM133.984 89.5373C133.984 101.699 128.777 104.46 128.629 104.46C126.784 105.363 126.01 107.594 126.91 109.444C126.91 109.452 126.918 109.452 126.918 109.459C128.629 112.966 132.125 123.039 127.662 127.591C124.523 131.254 120.156 133.642 115.388 134.306C113.99 134.328 112.733 135.142 112.115 136.395C112.115 136.395 98.354 163.48 74.4764 170.121C74.5582 169.375 74.5582 168.628 74.4764 167.882C74.4615 165.823 72.7804 164.167 70.7274 164.181C70.1993 164.189 69.6711 164.301 69.1951 164.525C63.8096 167.405 57.4199 167.711 51.789 165.345C37.2839 159.152 29.8454 137.067 29.8454 136.843C29.3024 135.298 27.8296 134.276 26.2005 134.306C21.4548 133.754 17.0735 131.5 13.8526 127.964C9.38953 123.487 12.8112 113.041 14.5965 109.832C15.385 108.012 14.6783 105.885 12.96 104.908C12.96 104.908 7.52991 101.699 7.52991 89.5373C8.51179 81.8594 12.6699 74.9576 18.9852 70.5106C16.5677 76.5767 15.2064 83.0085 14.9684 89.5373C14.1576 101.088 22.8383 111.108 34.3531 111.922C35.3276 111.989 36.3095 111.989 37.2839 111.922C42.1933 111.742 47.0209 110.601 51.4914 108.564C63.7798 103.087 77.8088 103.087 90.0972 108.564C94.5455 110.593 99.3433 111.735 104.23 111.922C115.745 112.735 125.735 104.027 126.546 92.4771C126.613 91.4996 126.613 90.5147 126.546 89.5373C126.308 83.0085 124.947 76.5767 122.529 70.5106C128.844 74.9576 133.003 81.8594 133.984 89.5373ZM122.678 52.2301L123.496 54.6177C124.151 56.5726 123.109 58.6842 121.16 59.3483C120.788 59.4751 120.394 59.5423 120 59.5423H21.5887C19.5356 59.5274 17.8843 57.8411 17.8992 55.7817C17.8992 55.3863 17.9661 54.9908 18.0926 54.6177L18.8364 52.2301C20.4208 47.7457 24.6533 44.7537 29.3991 44.7686H112.115C116.861 44.7537 121.093 47.7457 122.678 52.2301ZM105.569 27.085C104.528 30.6068 105.249 34.4122 107.503 37.3072H32.8208C39.7386 26.6373 57.6654 7.46144 78.1956 7.46144C92.7081 7.58828 106.99 11.0877 119.926 17.6836C119.926 18.1313 119.926 18.5044 119.554 18.9521C115.091 19.6236 107.652 21.5636 105.644 27.3089L105.569 27.085Z" fill="#303C42"/>
<path d="M119.777 26.4881C121.964 34.4345 130.154 39.0979 138.076 36.9043C145.998 34.7106 150.647 26.4956 148.46 18.5491C146.273 10.6027 138.083 5.9393 130.161 8.13297C127.87 8.76719 125.757 9.9461 124.017 11.5652C109.876 4.10379 94.1661 0.141767 78.1956 0C51.0451 0 29.0272 27.0104 23.7458 38.2026C18.0926 40.0157 13.6444 44.4254 11.7699 50.0662L10.9516 52.2301C9.80609 55.6399 10.3863 59.4005 12.5137 62.303C13.0716 63.079 13.7187 63.7804 14.4477 64.3922C6.25049 70.2867 1.00634 79.4643 0.0914084 89.5372C-0.51111 96.7823 1.88409 103.96 6.71167 109.385C4.70328 114.682 1.57911 126.173 8.64568 133.187C12.6773 137.35 17.8545 140.215 23.5227 141.394C26.0518 147.736 34.3085 165.868 48.9624 172.135C52.3766 173.65 56.0884 174.389 59.8226 174.299C59.7333 174.769 59.7333 175.247 59.8226 175.717C60.0531 177.597 61.6524 179.015 63.5418 179C95.0067 179 113.603 149.154 117.992 141.693C123.675 140.506 128.859 137.619 132.869 133.41C139.861 126.397 136.737 114.906 134.803 109.609C139.69 104.132 142.092 96.8569 141.423 89.5372C140.441 79.5464 135.212 70.4584 127.067 64.616C127.796 64.0042 128.443 63.3028 129.001 62.5268C131.202 59.5721 131.79 55.7071 130.563 52.2301L129.744 49.8424C127.885 44.4926 123.697 40.2918 118.364 38.4264C113.454 33.9495 112.19 30.965 112.562 29.7711C112.933 28.5773 116.355 27.1596 119.777 26.4881Z" fill="url(#paint0_linear)"/>
<defs>
<linearGradient id="paint0_linear" x1="10.9159" y1="51.6138" x2="143.229" y2="113.111" gradientUnits="userSpaceOnUse">
<stop stop-color="white" stop-opacity="0.2"/>
<stop offset="1" stop-color="white" stop-opacity="0"/>
</linearGradient>
</defs>
</svg>
